<svg xmlns="http://www.w3.org/2000/svg" width="24" height="24" viewBox="0 0 24 24" fill="none">
  <path d="M6.64825 21C5.74331 20.2936 4.92208 19.4793 4.20111 18.5742C4.06704 18.4059 4 18.203 4 18M6.64825 15C5.74331 15.7064 4.92208 16.5207 4.20111 17.4258C4.06704 17.5941 4 17.797 4 18M4 18L17 18C18.6569 18 20 16.6569 20 15C20 13.3431 18.6569 12 17 12L7 12C5.34314 12 4 10.6569 4 9C4 7.34315 5.34315 6 7 6L20 6M17.3517 3C18.2567 3.70641 19.0779 4.52073 19.7989 5.42576C19.933 5.59405 20 5.79703 20 6M17.3517 9C18.2567 8.29359 19.0779 7.47927 19.7989 6.57424C19.933 6.40595 20 6.20297 20 6" stroke="#8B8DFC" stroke-width="2" stroke-linecap="round" stroke-linejoin="round"/>
</svg>