<svg width="23" height="23" viewBox="0 0 23 23" fill="none" xmlns="http://www.w3.org/2000/svg">
<g id="Copy/copy">
<path id="Vector" d="M15.7751 15.7751C15.9951 15.7425 16.191 15.6983 16.3755 15.6383C17.7962 15.1767 18.91 14.0628 19.3716 12.6421C19.6 11.9392 19.6 11.0706 19.6 9.33338C19.6 7.59619 19.6 6.72759 19.3716 6.02464C18.91 4.60393 17.7962 3.49007 16.3755 3.02845C15.6725 2.80005 14.8039 2.80005 13.0667 2.80005C11.3295 2.80005 10.4609 2.80005 9.75797 3.02845C8.33726 3.49007 7.2234 4.60393 6.76179 6.02464C6.70184 6.20912 6.65763 6.40501 6.62502 6.62502M15.7751 15.7751C15.8667 15.1568 15.8667 14.348 15.8667 13.0667C15.8667 11.3295 15.8667 10.4609 15.6383 9.75797C15.1767 8.33726 14.0628 7.2234 12.6421 6.76179C11.9392 6.53338 11.0706 6.53338 9.33338 6.53338C8.0521 6.53338 7.24333 6.53338 6.62502 6.62502M15.7751 15.7751C15.7425 15.9951 15.6983 16.191 15.6383 16.3755C15.1767 17.7962 14.0628 18.91 12.6421 19.3716C11.9392 19.6 11.0706 19.6 9.33338 19.6C7.59619 19.6 6.72759 19.6 6.02464 19.3716C4.60393 18.91 3.49007 17.7962 3.02845 16.3755C2.80005 15.6725 2.80005 14.8039 2.80005 13.0667C2.80005 11.3295 2.80005 10.4609 3.02845 9.75797C3.49007 8.33726 4.60393 7.2234 6.02464 6.76179C6.20912 6.70184 6.40501 6.65763 6.62502 6.62502" stroke="white" stroke-width="1.96" stroke-linecap="round" stroke-linejoin="round"/>
</g>
</svg>
