<svg width="23" height="23" viewBox="0 0 23 23" fill="none" xmlns="http://www.w3.org/2000/svg">
<g id="Log/Out Right">
<path id="Vector" d="M16.9759 8.40005C17.8971 9.09094 18.729 9.89244 19.4531 10.786C19.5511 10.9069 19.6 11.0535 19.6 11.2M16.9759 14C17.8971 13.3092 18.729 12.5077 19.4531 11.614C19.5511 11.4932 19.6 11.3466 19.6 11.2M19.6 11.2H7.46671M12.1334 4.22598C11.1426 3.33924 9.83431 2.80005 8.40005 2.80005C5.30725 2.80005 2.80005 5.30725 2.80005 8.40005V14C2.80005 17.0928 5.30725 19.6 8.40005 19.6C9.83431 19.6 11.1426 19.0609 12.1334 18.1741" stroke="white" stroke-width="1.86667" stroke-linecap="round" stroke-linejoin="round"/>
</g>
</svg>
