<?xml version="1.0" standalone="no"?>
<!DOCTYPE svg PUBLIC "-//W3C//DTD SVG 20010904//EN"
 "http://www.w3.org/TR/2001/REC-SVG-20010904/DTD/svg10.dtd">
<svg version="1.0" xmlns="http://www.w3.org/2000/svg"
 width="400.000000pt" height="400.000000pt" viewBox="0 0 400.000000 400.000000"
 preserveAspectRatio="xMidYMid meet">

<g transform="translate(0.000000,400.000000) scale(0.100000,-0.100000)"
fill="#000000" stroke="none">
<path d="M1790 3989 c-676 -70 -1286 -497 -1585 -1113 -272 -558 -272 -1194 0
-1752 303 -623 911 -1045 1604 -1114 823 -81 1622 366 1986 1114 272 558 272
1195 1 1751 -370 756 -1169 1199 -2006 1114z m980 -1020 c181 -80 233 -321
100 -472 -179 -204 -514 -75 -514 198 0 219 216 361 414 274z m-1242 -896 l2
-623 560 0 560 0 0 -150 0 -150 -730 0 -730 0 0 768 c0 423 3 772 7 776 4 3
79 5 167 4 l161 -3 3 -622z"/>
</g>
</svg>
