<svg width="40" height="40" viewBox="0 0 40 40" fill="none" xmlns="http://www.w3.org/2000/svg">
<path d="M35 20C35 28.2843 28.2843 35 20 35C11.7157 35 5 28.2843 5 20C5 11.7157 11.7157 5 20 5C28.2843 5 35 11.7157 35 20Z" stroke="white" stroke-width="2" stroke-linecap="round" stroke-linejoin="round"/>
<path d="M17.1716 16.1618C18.1616 15.1717 18.6566 14.6767 19.2275 14.4912C19.7296 14.3281 20.2704 14.3281 20.7725 14.4912C21.3434 14.6767 21.8384 15.1717 22.8284 16.1618L23.8382 17.1716C24.8283 18.1616 25.3233 18.6566 25.5088 19.2275C25.6719 19.7296 25.6719 20.2704 25.5088 20.7725C25.3233 21.3434 24.8283 21.8384 23.8382 22.8284L22.8284 23.8382C21.8384 24.8283 21.3434 25.3233 20.7725 25.5088C20.2704 25.6719 19.7296 25.6719 19.2275 25.5088C18.6566 25.3233 18.1616 24.8283 17.1716 23.8382L16.1618 22.8284C15.1717 21.8384 14.6767 21.3434 14.4912 20.7725C14.3281 20.2704 14.3281 19.7296 14.4912 19.2275C14.6767 18.6566 15.1717 18.1616 16.1618 17.1716L17.1716 16.1618Z" stroke="white" stroke-width="2" stroke-linecap="round" stroke-linejoin="round"/>
</svg>
